<?xml version="1.0" encoding="utf-8"?><svg xmlns="http://www.w3.org/2000/svg" xmlns:xlink="http://www.w3.org/1999/xlink"><symbol viewBox="0 0 17 20" id="calculator" xmlns="http://www.w3.org/2000/svg"><path d="M13.2442 3.13725H3.75581C3.59853 3.13725 3.4477 3.19923 3.33648 3.30955C3.22527 3.41986 3.16279 3.56948 3.16279 3.72549V8.43137C3.16279 8.58738 3.22527 8.737 3.33648 8.84732C3.4477 8.95763 3.59853 9.01961 3.75581 9.01961H13.2442C13.4015 9.01961 13.5523 8.95763 13.6635 8.84732C13.7747 8.737 13.8372 8.58738 13.8372 8.43137V3.72549C13.8372 3.56948 13.7747 3.41986 13.6635 3.30955C13.5523 3.19923 13.4015 3.13725 13.2442 3.13725ZM12.6512 7.84314H4.34884V4.31373H12.6512V7.84314ZM15.6163 0H1.38372C1.01674 0 0.664781 0.144608 0.405283 0.40201C0.145785 0.659413 0 1.00853 0 1.37255V18.6275C0 18.9915 0.145785 19.3406 0.405283 19.598C0.664781 19.8554 1.01674 20 1.38372 20H15.6163C15.9833 20 16.3352 19.8554 16.5947 19.598C16.8542 19.3406 17 18.9915 17 18.6275V1.37255C17 1.00853 16.8542 0.659413 16.5947 0.40201C16.3352 0.144608 15.9833 0 15.6163 0ZM15.814 18.6275C15.814 18.6795 15.7931 18.7293 15.7561 18.7661C15.719 18.8029 15.6687 18.8235 15.6163 18.8235H1.38372C1.33129 18.8235 1.28102 18.8029 1.24394 18.7661C1.20687 18.7293 1.18605 18.6795 1.18605 18.6275V1.37255C1.18605 1.32055 1.20687 1.27067 1.24394 1.2339C1.28102 1.19713 1.33129 1.17647 1.38372 1.17647H15.6163C15.6687 1.17647 15.719 1.19713 15.7561 1.2339C15.7931 1.27067 15.814 1.32055 15.814 1.37255V18.6275ZM5.53488 11.9608C5.53488 12.1547 5.47692 12.3442 5.36831 12.5055C5.25971 12.6667 5.10535 12.7923 4.92475 12.8665C4.74414 12.9408 4.54541 12.9602 4.35369 12.9223C4.16196 12.8845 3.98585 12.7911 3.84763 12.654C3.7094 12.5169 3.61527 12.3422 3.57713 12.152C3.53899 11.9619 3.55857 11.7647 3.63338 11.5856C3.70818 11.4065 3.83486 11.2533 3.9974 11.1456C4.15994 11.0379 4.35103 10.9804 4.54651 10.9804C4.80864 10.9804 5.06004 11.0837 5.2454 11.2675C5.43075 11.4514 5.53488 11.7008 5.53488 11.9608ZM9.48837 11.9608C9.48837 12.1547 9.43041 12.3442 9.3218 12.5055C9.2132 12.6667 9.05884 12.7923 8.87823 12.8665C8.69763 12.9408 8.4989 12.9602 8.30718 12.9223C8.11545 12.8845 7.93934 12.7911 7.80112 12.654C7.66289 12.5169 7.56876 12.3422 7.53062 12.152C7.49248 11.9619 7.51206 11.7647 7.58686 11.5856C7.66167 11.4065 7.78835 11.2533 7.95089 11.1456C8.11343 11.0379 8.30452 10.9804 8.5 10.9804C8.76213 10.9804 9.01353 11.0837 9.19889 11.2675C9.38424 11.4514 9.48837 11.7008 9.48837 11.9608ZM13.4419 11.9608C13.4419 12.1547 13.3839 12.3442 13.2753 12.5055C13.1667 12.6667 13.0123 12.7923 12.8317 12.8665C12.6511 12.9408 12.4524 12.9602 12.2607 12.9223C12.0689 12.8845 11.8928 12.7911 11.7546 12.654C11.6164 12.5169 11.5222 12.3422 11.4841 12.152C11.446 11.9619 11.4655 11.7647 11.5404 11.5856C11.6152 11.4065 11.7418 11.2533 11.9044 11.1456C12.0669 11.0379 12.258 10.9804 12.4535 10.9804C12.7156 10.9804 12.967 11.0837 13.1524 11.2675C13.3377 11.4514 13.4419 11.7008 13.4419 11.9608ZM5.53488 15.8824C5.53488 16.0763 5.47692 16.2658 5.36831 16.427C5.25971 16.5883 5.10535 16.7139 4.92475 16.7881C4.74414 16.8623 4.54541 16.8817 4.35369 16.8439C4.16196 16.8061 3.98585 16.7127 3.84763 16.5756C3.7094 16.4385 3.61527 16.2638 3.57713 16.0736C3.53899 15.8834 3.55857 15.6863 3.63338 15.5072C3.70818 15.328 3.83486 15.1749 3.9974 15.0672C4.15994 14.9595 4.35103 14.902 4.54651 14.902C4.80864 14.902 5.06004 15.0053 5.2454 15.1891C5.43075 15.373 5.53488 15.6223 5.53488 15.8824ZM9.48837 15.8824C9.48837 16.0763 9.43041 16.2658 9.3218 16.427C9.2132 16.5883 9.05884 16.7139 8.87823 16.7881C8.69763 16.8623 8.4989 16.8817 8.30718 16.8439C8.11545 16.8061 7.93934 16.7127 7.80112 16.5756C7.66289 16.4385 7.56876 16.2638 7.53062 16.0736C7.49248 15.8834 7.51206 15.6863 7.58686 15.5072C7.66167 15.328 7.78835 15.1749 7.95089 15.0672C8.11343 14.9595 8.30452 14.902 8.5 14.902C8.76213 14.902 9.01353 15.0053 9.19889 15.1891C9.38424 15.373 9.48837 15.6223 9.48837 15.8824ZM13.4419 15.8824C13.4419 16.0763 13.3839 16.2658 13.2753 16.427C13.1667 16.5883 13.0123 16.7139 12.8317 16.7881C12.6511 16.8623 12.4524 16.8817 12.2607 16.8439C12.0689 16.8061 11.8928 16.7127 11.7546 16.5756C11.6164 16.4385 11.5222 16.2638 11.4841 16.0736C11.446 15.8834 11.4655 15.6863 11.5404 15.5072C11.6152 15.328 11.7418 15.1749 11.9044 15.0672C12.0669 14.9595 12.258 14.902 12.4535 14.902C12.7156 14.902 12.967 15.0053 13.1524 15.1891C13.3377 15.373 13.4419 15.6223 13.4419 15.8824Z"/></symbol><symbol viewBox="0 0 24 24" id="credit-card" xmlns="http://www.w3.org/2000/svg"><path d="M21 4H3C1.89543 4 1 4.89543 1 6V18C1 19.1046 1.89543 20 3 20H21C22.1046 20 23 19.1046 23 18V6C23 4.89543 22.1046 4 21 4Z" stroke-width="1.5" stroke-linecap="round" stroke-linejoin="round"/><path d="M1 10H23" stroke-width="1.5" stroke-linecap="round" stroke-linejoin="round"/></symbol><symbol viewBox="0 0 16 16" id="play-white" xmlns="http://www.w3.org/2000/svg"><path d="M3.33398 2L12.6673 8L3.33398 14V2Z" stroke-width="2" stroke-linecap="round" stroke-linejoin="round"/></symbol><symbol viewBox="0 0 24 24" id="search" xmlns="http://www.w3.org/2000/svg"><path d="M11 19C15.4183 19 19 15.4183 19 11C19 6.58172 15.4183 3 11 3C6.58172 3 3 6.58172 3 11C3 15.4183 6.58172 19 11 19Z" stroke-width="1.5" stroke-linecap="round" stroke-linejoin="round"/><path d="M20.9984 21.0004L16.6484 16.6504" stroke-width="1.5" stroke-linecap="round" stroke-linejoin="round"/></symbol><symbol viewBox="0 0 16 14" id="tg" xmlns="http://www.w3.org/2000/svg"><path d="M0.745003 5.77972L14.9344 0.0698825C15.593 -0.178427 16.1682 0.237556 15.9548 1.27687L15.956 1.27559L13.54 13.1548C13.3609 13.997 12.8814 14.2018 12.2106 13.805L8.53139 10.975L6.75679 12.7593C6.56057 12.9641 6.39501 13.1369 6.01483 13.1369L6.27605 9.22918L13.0948 2.80001C13.3916 2.52738 13.0286 2.37379 12.6374 2.64514L4.2108 8.18218L0.578213 6.99951C-0.21036 6.7384 -0.227529 6.17651 0.745003 5.77972Z"/></symbol><symbol viewBox="0 0 24 24" id="trending-up" xmlns="http://www.w3.org/2000/svg"><path d="M23 6L13.5 15.5L8.5 10.5L1 18" stroke-width="1.5" stroke-linecap="round" stroke-linejoin="round"/><path d="M17 6H23V12" stroke-width="1.5" stroke-linecap="round" stroke-linejoin="round"/></symbol><symbol viewBox="0 0 24 24" id="truck" xmlns="http://www.w3.org/2000/svg"><path d="M16 3H1V16H16V3Z" stroke-width="1.5" stroke-linecap="round" stroke-linejoin="round"/><path d="M16 8H20L23 11V16H16V8Z" stroke-width="1.5" stroke-linecap="round" stroke-linejoin="round"/><path d="M5.5 21C6.88071 21 8 19.8807 8 18.5C8 17.1193 6.88071 16 5.5 16C4.11929 16 3 17.1193 3 18.5C3 19.8807 4.11929 21 5.5 21Z" stroke-width="1.5" stroke-linecap="round" stroke-linejoin="round"/><path d="M18.5 21C19.8807 21 21 19.8807 21 18.5C21 17.1193 19.8807 16 18.5 16C17.1193 16 16 17.1193 16 18.5C16 19.8807 17.1193 21 18.5 21Z" stroke-width="1.5" stroke-linecap="round" stroke-linejoin="round"/></symbol><symbol viewBox="0 0 16 18" id="viber" xmlns="http://www.w3.org/2000/svg"><path d="M9.77778 0H6.22222C4.57199 0 2.98934 0.663786 1.82245 1.84533C0.655555 3.02688 5.50653e-07 4.6294 5.50653e-07 6.30036V9.00051C-0.000494912 10.1932 0.333372 11.3616 0.962785 12.3697C1.5922 13.3779 2.4913 14.1844 3.55556 14.6956V17.704C3.55662 17.7627 3.57457 17.8198 3.60722 17.8683C3.63987 17.9168 3.68579 17.9546 3.73936 17.9771C3.79292 17.9995 3.85179 18.0057 3.90875 17.9947C3.96571 17.9838 4.01827 17.9563 4.06 17.9155L6.64222 15.3009H9.77778C11.428 15.3009 13.0107 14.6371 14.1776 13.4555C15.3444 12.274 16 10.6715 16 9.00051V6.30036C16 4.6294 15.3444 3.02688 14.1776 1.84533C13.0107 0.663786 11.428 0 9.77778 0ZM12.1067 11.8087L11.2178 12.7087C10.2711 13.647 7.8 12.576 5.62222 10.3236C3.44445 8.0712 2.48889 5.54431 3.4 4.60601L4.28889 3.70596C4.4631 3.54761 4.68961 3.46116 4.9237 3.46365C5.1578 3.46615 5.38246 3.55743 5.55333 3.71946L6.85111 5.06954C6.95418 5.17723 7.02851 5.3097 7.0671 5.45449C7.1057 5.59928 7.10729 5.75163 7.07174 5.89721C7.03618 6.04279 6.96464 6.17683 6.86385 6.28672C6.76306 6.3966 6.63632 6.47873 6.49556 6.52537C6.28691 6.59019 6.11093 6.73389 6.00417 6.92663C5.8974 7.11938 5.86806 7.34635 5.92222 7.56043C6.14444 8.55948 7.39778 9.81055 8.33111 10.0558C8.54153 10.1066 8.76301 10.0779 8.95405 9.97519C9.14509 9.87247 9.29258 9.70273 9.36889 9.49778C9.41819 9.35485 9.50299 9.22716 9.61514 9.12702C9.72728 9.02688 9.863 8.95766 10.0092 8.92601C10.1554 8.89437 10.3072 8.90136 10.45 8.94633C10.5928 8.9913 10.7217 9.07272 10.8244 9.18277L12.12 10.5328C12.2756 10.7087 12.3605 10.9372 12.3581 11.1734C12.3556 11.4095 12.2659 11.6361 12.1067 11.8087ZM8.80889 4.27524C8.7205 4.27482 8.63217 4.28008 8.54445 4.29099C8.50578 4.29528 8.46666 4.29181 8.42931 4.28078C8.39197 4.26976 8.35714 4.25139 8.3268 4.22674C8.29647 4.20208 8.27123 4.17162 8.25252 4.13709C8.23382 4.10255 8.22201 4.06463 8.21778 4.02548C8.21355 3.98632 8.21697 3.94671 8.22786 3.9089C8.23875 3.87109 8.25689 3.83582 8.28124 3.8051C8.30558 3.77439 8.33567 3.74883 8.36977 3.72989C8.40388 3.71095 8.44133 3.69899 8.48 3.69471C8.58917 3.68198 8.699 3.67597 8.80889 3.67671C9.59531 3.67611 10.3498 3.99171 10.9065 4.55415C11.4632 5.11658 11.7766 5.87983 11.7778 6.67613C11.7785 6.78739 11.7726 6.8986 11.76 7.00915C11.7558 7.0483 11.744 7.08622 11.7253 7.12076C11.7065 7.15529 11.6813 7.18575 11.651 7.21041C11.6206 7.23506 11.5858 7.25343 11.5485 7.26445C11.5111 7.27548 11.472 7.27894 11.4333 7.27466C11.3947 7.27038 11.3572 7.25842 11.3231 7.23948C11.289 7.22054 11.2589 7.19498 11.2346 7.16427C11.2102 7.13355 11.1921 7.09828 11.1812 7.06047C11.1703 7.02266 11.1669 6.98304 11.1711 6.94389C11.1808 6.85496 11.186 6.76559 11.1867 6.67613C11.1855 6.03857 10.9344 5.42756 10.4885 4.97737C10.0427 4.52719 9.43854 4.27464 8.80889 4.27524ZM10.5867 6.67613C10.5802 6.75131 10.5462 6.82131 10.4913 6.87232C10.4363 6.92332 10.3645 6.95162 10.29 6.95162C10.2155 6.95162 10.1437 6.92332 10.0887 6.87232C10.0338 6.82131 9.99977 6.75131 9.99333 6.67613C9.99333 6.35805 9.86855 6.053 9.64642 5.82808C9.42429 5.60316 9.12302 5.47681 8.80889 5.47681C8.76777 5.48042 8.72637 5.47533 8.68729 5.46187C8.64822 5.44841 8.61234 5.42688 8.58192 5.39863C8.5515 5.37039 8.52722 5.33605 8.5106 5.29779C8.49399 5.25954 8.48541 5.21821 8.48541 5.17642C8.48541 5.13463 8.49399 5.09329 8.5106 5.05504C8.52722 5.01679 8.5515 4.98245 8.58192 4.9542C8.61234 4.92596 8.64822 4.90442 8.68729 4.89096C8.72637 4.87751 8.76777 4.87242 8.80889 4.87602C9.28039 4.87602 9.73257 5.06568 10.066 5.40326C10.3994 5.74085 10.5867 6.19871 10.5867 6.67613ZM12.8467 7.65043C12.8401 7.69134 12.8253 7.73043 12.8031 7.76527C12.7809 7.80012 12.7519 7.82996 12.7179 7.85294C12.6838 7.87592 12.6454 7.89154 12.6051 7.89883C12.5648 7.90612 12.5235 7.90492 12.4837 7.8953C12.4439 7.88569 12.4064 7.86787 12.3737 7.84296C12.341 7.81804 12.3137 7.78656 12.2936 7.75049C12.2734 7.71442 12.2608 7.67453 12.2566 7.63331C12.2523 7.59209 12.2565 7.55043 12.2689 7.51092C12.3331 7.23896 12.3651 6.96025 12.3644 6.68063C12.3644 5.72579 11.9898 4.81007 11.323 4.1349C10.6562 3.45973 9.75188 3.08042 8.80889 3.08042C8.71778 3.08042 8.62444 3.08042 8.53333 3.08042C8.49452 3.08338 8.45551 3.07856 8.41854 3.06625C8.38156 3.05394 8.34734 3.03438 8.31784 3.00868C8.25824 2.95678 8.22145 2.88303 8.21556 2.80366C8.20966 2.72429 8.23515 2.6458 8.28641 2.58545C8.33767 2.52511 8.4105 2.48786 8.48889 2.48189C8.59556 2.47289 8.70222 2.46839 8.80889 2.46839C9.90986 2.47018 10.9651 2.91428 11.743 3.70319C12.5209 4.4921 12.9578 5.56133 12.9578 6.67613C12.9579 7.00414 12.9206 7.33107 12.8467 7.65043Z"/></symbol><symbol viewBox="0 0 16 16" id="whatsApp" xmlns="http://www.w3.org/2000/svg"><path d="M7.99597 1.58199e-06C6.52232 0.000561853 5.07746 0.408252 3.82083 1.17809C2.56419 1.94793 1.54461 3.04999 0.874597 4.36267C0.204579 5.67536 -0.0898357 7.14765 0.0238356 8.61709C0.137507 10.0865 0.654846 11.496 1.51877 12.69L0.518897 15.662L3.59651 14.678C4.63767 15.3649 5.825 15.7987 7.06367 15.9449C8.30234 16.0911 9.55803 15.9455 10.7304 15.5199C11.9028 15.0942 12.9595 14.4003 13.816 13.4934C14.6724 12.5866 15.305 11.492 15.6631 10.2972C16.0213 9.10227 16.0951 7.84017 15.8786 6.61168C15.6622 5.38319 15.1615 4.22234 14.4165 3.22186C13.6716 2.22137 12.703 1.40898 11.5882 0.849566C10.4734 0.290151 9.24323 -0.000782832 7.99597 1.58199e-06ZM12.2474 11.314L11.3955 12.166C10.4997 13.062 8.12395 12.076 6.01821 9.966C3.91247 7.856 2.96859 5.486 3.82049 4.6L4.67238 3.748C4.83734 3.59635 5.05324 3.51219 5.2773 3.51219C5.50137 3.51219 5.71727 3.59635 5.88223 3.748L7.13807 5C7.24048 5.09957 7.3156 5.22377 7.35624 5.3607C7.39688 5.49763 7.40167 5.64271 7.37016 5.78203C7.33865 5.92135 7.27188 6.05024 7.17627 6.15634C7.08066 6.26245 6.9594 6.34222 6.82411 6.388C6.62453 6.45178 6.45723 6.59008 6.35703 6.77411C6.25683 6.95814 6.23145 7.17373 6.28618 7.376C6.51015 8.316 7.72 9.482 8.61789 9.706C8.81906 9.74822 9.02871 9.71645 9.20834 9.61652C9.38797 9.51659 9.52553 9.35521 9.59577 9.162C9.64103 9.02473 9.72111 8.90155 9.82818 8.80447C9.93525 8.70739 10.0657 8.63973 10.2067 8.6081C10.3477 8.57647 10.4945 8.58194 10.6328 8.62399C10.771 8.66604 10.896 8.74322 10.9956 8.848L12.2494 10.104C12.4008 10.2692 12.4846 10.4853 12.4842 10.7094C12.4838 10.9335 12.3993 11.1493 12.2474 11.314Z"/></symbol></svg>