<svg width="17" height="20" viewBox="0 0 17 20" fill="none" xmlns="http://www.w3.org/2000/svg">
<path d="M13.2442 3.13725H3.75581C3.59853 3.13725 3.4477 3.19923 3.33648 3.30955C3.22527 3.41986 3.16279 3.56948 3.16279 3.72549V8.43137C3.16279 8.58738 3.22527 8.737 3.33648 8.84732C3.4477 8.95763 3.59853 9.01961 3.75581 9.01961H13.2442C13.4015 9.01961 13.5523 8.95763 13.6635 8.84732C13.7747 8.737 13.8372 8.58738 13.8372 8.43137V3.72549C13.8372 3.56948 13.7747 3.41986 13.6635 3.30955C13.5523 3.19923 13.4015 3.13725 13.2442 3.13725ZM12.6512 7.84314H4.34884V4.31373H12.6512V7.84314ZM15.6163 0H1.38372C1.01674 0 0.664781 0.144608 0.405283 0.40201C0.145785 0.659413 0 1.00853 0 1.37255V18.6275C0 18.9915 0.145785 19.3406 0.405283 19.598C0.664781 19.8554 1.01674 20 1.38372 20H15.6163C15.9833 20 16.3352 19.8554 16.5947 19.598C16.8542 19.3406 17 18.9915 17 18.6275V1.37255C17 1.00853 16.8542 0.659413 16.5947 0.40201C16.3352 0.144608 15.9833 0 15.6163 0ZM15.814 18.6275C15.814 18.6795 15.7931 18.7293 15.7561 18.7661C15.719 18.8029 15.6687 18.8235 15.6163 18.8235H1.38372C1.33129 18.8235 1.28102 18.8029 1.24394 18.7661C1.20687 18.7293 1.18605 18.6795 1.18605 18.6275V1.37255C1.18605 1.32055 1.20687 1.27067 1.24394 1.2339C1.28102 1.19713 1.33129 1.17647 1.38372 1.17647H15.6163C15.6687 1.17647 15.719 1.19713 15.7561 1.2339C15.7931 1.27067 15.814 1.32055 15.814 1.37255V18.6275ZM5.53488 11.9608C5.53488 12.1547 5.47692 12.3442 5.36831 12.5055C5.25971 12.6667 5.10535 12.7923 4.92475 12.8665C4.74414 12.9408 4.54541 12.9602 4.35369 12.9223C4.16196 12.8845 3.98585 12.7911 3.84763 12.654C3.7094 12.5169 3.61527 12.3422 3.57713 12.152C3.53899 11.9619 3.55857 11.7647 3.63338 11.5856C3.70818 11.4065 3.83486 11.2533 3.9974 11.1456C4.15994 11.0379 4.35103 10.9804 4.54651 10.9804C4.80864 10.9804 5.06004 11.0837 5.2454 11.2675C5.43075 11.4514 5.53488 11.7008 5.53488 11.9608ZM9.48837 11.9608C9.48837 12.1547 9.43041 12.3442 9.3218 12.5055C9.2132 12.6667 9.05884 12.7923 8.87823 12.8665C8.69763 12.9408 8.4989 12.9602 8.30718 12.9223C8.11545 12.8845 7.93934 12.7911 7.80112 12.654C7.66289 12.5169 7.56876 12.3422 7.53062 12.152C7.49248 11.9619 7.51206 11.7647 7.58686 11.5856C7.66167 11.4065 7.78835 11.2533 7.95089 11.1456C8.11343 11.0379 8.30452 10.9804 8.5 10.9804C8.76213 10.9804 9.01353 11.0837 9.19889 11.2675C9.38424 11.4514 9.48837 11.7008 9.48837 11.9608ZM13.4419 11.9608C13.4419 12.1547 13.3839 12.3442 13.2753 12.5055C13.1667 12.6667 13.0123 12.7923 12.8317 12.8665C12.6511 12.9408 12.4524 12.9602 12.2607 12.9223C12.0689 12.8845 11.8928 12.7911 11.7546 12.654C11.6164 12.5169 11.5222 12.3422 11.4841 12.152C11.446 11.9619 11.4655 11.7647 11.5404 11.5856C11.6152 11.4065 11.7418 11.2533 11.9044 11.1456C12.0669 11.0379 12.258 10.9804 12.4535 10.9804C12.7156 10.9804 12.967 11.0837 13.1524 11.2675C13.3377 11.4514 13.4419 11.7008 13.4419 11.9608ZM5.53488 15.8824C5.53488 16.0763 5.47692 16.2658 5.36831 16.427C5.25971 16.5883 5.10535 16.7139 4.92475 16.7881C4.74414 16.8623 4.54541 16.8817 4.35369 16.8439C4.16196 16.8061 3.98585 16.7127 3.84763 16.5756C3.7094 16.4385 3.61527 16.2638 3.57713 16.0736C3.53899 15.8834 3.55857 15.6863 3.63338 15.5072C3.70818 15.328 3.83486 15.1749 3.9974 15.0672C4.15994 14.9595 4.35103 14.902 4.54651 14.902C4.80864 14.902 5.06004 15.0053 5.2454 15.1891C5.43075 15.373 5.53488 15.6223 5.53488 15.8824ZM9.48837 15.8824C9.48837 16.0763 9.43041 16.2658 9.3218 16.427C9.2132 16.5883 9.05884 16.7139 8.87823 16.7881C8.69763 16.8623 8.4989 16.8817 8.30718 16.8439C8.11545 16.8061 7.93934 16.7127 7.80112 16.5756C7.66289 16.4385 7.56876 16.2638 7.53062 16.0736C7.49248 15.8834 7.51206 15.6863 7.58686 15.5072C7.66167 15.328 7.78835 15.1749 7.95089 15.0672C8.11343 14.9595 8.30452 14.902 8.5 14.902C8.76213 14.902 9.01353 15.0053 9.19889 15.1891C9.38424 15.373 9.48837 15.6223 9.48837 15.8824ZM13.4419 15.8824C13.4419 16.0763 13.3839 16.2658 13.2753 16.427C13.1667 16.5883 13.0123 16.7139 12.8317 16.7881C12.6511 16.8623 12.4524 16.8817 12.2607 16.8439C12.0689 16.8061 11.8928 16.7127 11.7546 16.5756C11.6164 16.4385 11.5222 16.2638 11.4841 16.0736C11.446 15.8834 11.4655 15.6863 11.5404 15.5072C11.6152 15.328 11.7418 15.1749 11.9044 15.0672C12.0669 14.9595 12.258 14.902 12.4535 14.902C12.7156 14.902 12.967 15.0053 13.1524 15.1891C13.3377 15.373 13.4419 15.6223 13.4419 15.8824Z" fill="#F95707"/>
</svg>
