<?xml version="1.0" encoding="utf-8"?><svg viewBox="0 0 24 24" xmlns="http://www.w3.org/2000/svg" xmlns:xlink="http://www.w3.org/1999/xlink"><style>:root>svg{display:none}:root>svg:target{display:block}</style><svg fill="none" viewBox="0 0 17 20" id="calculator" xmlns="http://www.w3.org/2000/svg">
    <path d="M13.244 3.137H3.756a.595.595 0 0 0-.42.173.586.586 0 0 0-.173.415v4.706c0 .156.062.306.173.416.112.11.263.173.42.173h9.488a.595.595 0 0 0 .42-.173.586.586 0 0 0 .173-.416V3.725a.586.586 0 0 0-.173-.415.595.595 0 0 0-.42-.173Zm-.593 4.706H4.35v-3.53h8.302v3.53ZM15.616 0H1.384a1.39 1.39 0 0 0-.979.402C.145.659 0 1.009 0 1.372v17.256c0 .363.146.713.405.97.26.257.612.402.979.402h14.232c.367 0 .72-.145.979-.402.26-.257.405-.607.405-.97V1.373c0-.364-.146-.714-.405-.971A1.39 1.39 0 0 0 15.616 0Zm.198 18.628a.196.196 0 0 1-.198.195H1.384a.198.198 0 0 1-.198-.195V1.373a.195.195 0 0 1 .198-.197h14.232c.053 0 .103.021.14.058a.196.196 0 0 1 .058.139v17.255ZM5.534 11.96a.975.975 0 0 1-.61.905.994.994 0 0 1-1.076-.212.978.978 0 0 1 .699-1.674c.262 0 .513.104.698.287.186.184.29.434.29.694Zm3.954 0a.975.975 0 0 1-.61.905.994.994 0 0 1-1.077-.212.978.978 0 0 1 .699-1.674c.262 0 .514.104.699.287.185.184.29.434.29.694Zm3.954 0a.975.975 0 0 1-.61.905.994.994 0 0 1-1.077-.212.978.978 0 0 1 .698-1.674c.263 0 .514.104.7.287.185.184.289.434.289.694Zm-7.907 3.921a.974.974 0 0 1-.61.906.996.996 0 0 1-1.077-.212.978.978 0 0 1 .699-1.674c.262 0 .513.103.698.287.186.184.29.433.29.693Zm3.953 0a.974.974 0 0 1-.61.906.996.996 0 0 1-1.077-.212.978.978 0 0 1 .699-1.674c.262 0 .514.103.699.287.185.184.29.433.29.693Zm3.954 0a.975.975 0 0 1-.61.906.996.996 0 0 1-1.077-.212.978.978 0 0 1 .698-1.674c.263 0 .514.103.7.287.185.184.289.433.289.693Z" fill="#F95707"/>
</svg><svg fill="none" viewBox="0 0 24 24" id="credit-card" xmlns="http://www.w3.org/2000/svg">
    <path d="M21 4H3a2 2 0 0 0-2 2v12a2 2 0 0 0 2 2h18a2 2 0 0 0 2-2V6a2 2 0 0 0-2-2ZM1 10h22" stroke="#fff" stroke-width="1.5" stroke-linecap="round" stroke-linejoin="round"/>
</svg><svg fill="none" viewBox="0 0 16 16" id="play-white" xmlns="http://www.w3.org/2000/svg">
    <path d="m3.334 2 9.333 6-9.333 6V2Z" fill="#fff" stroke="#fff" stroke-width="2" stroke-linecap="round" stroke-linejoin="round"/>
</svg><svg fill="none" viewBox="0 0 24 24" id="search" xmlns="http://www.w3.org/2000/svg">
    <path d="M11 19a8 8 0 1 0 0-16 8 8 0 0 0 0 16ZM20.998 21l-4.35-4.35" stroke="#F95707" stroke-width="1.5" stroke-linecap="round" stroke-linejoin="round"/>
</svg><svg fill="none" viewBox="0 0 16 14" id="tg" xmlns="http://www.w3.org/2000/svg">
    <path d="M.745 5.78 14.935.07c.658-.248 1.233.168 1.02 1.207l.001-.001-2.416 11.879c-.18.842-.659 1.047-1.33.65l-3.679-2.83-1.774 1.784c-.196.205-.362.378-.742.378l.261-3.908L13.095 2.8c.297-.273-.066-.426-.458-.155L4.211 8.182.578 7c-.788-.262-.806-.823.167-1.22Z" fill="#105720"/>
</svg><svg fill="none" viewBox="0 0 24 24" id="trending-up" xmlns="http://www.w3.org/2000/svg">
    <path d="m23 6-9.5 9.5-5-5L1 18" stroke="#fff" stroke-width="1.5" stroke-linecap="round" stroke-linejoin="round"/>
    <path d="M17 6h6v6" stroke="#fff" stroke-width="1.5" stroke-linecap="round" stroke-linejoin="round"/>
</svg><svg fill="none" viewBox="0 0 24 24" id="truck" xmlns="http://www.w3.org/2000/svg">
    <path d="M16 3H1v13h15V3ZM16 8h4l3 3v5h-7V8ZM5.5 21a2.5 2.5 0 1 0 0-5 2.5 2.5 0 0 0 0 5ZM18.5 21a2.5 2.5 0 1 0 0-5 2.5 2.5 0 0 0 0 5Z" stroke="#fff" stroke-width="1.5" stroke-linecap="round" stroke-linejoin="round"/>
</svg><svg fill="none" viewBox="0 0 16 18" id="viber" xmlns="http://www.w3.org/2000/svg">
    <path d="M9.778 0H6.222c-1.65 0-3.233.664-4.4 1.845A6.34 6.34 0 0 0 0 6.3V9c0 1.193.333 2.362.963 3.37a6.248 6.248 0 0 0 2.593 2.326v3.008a.304.304 0 0 0 .183.273.294.294 0 0 0 .321-.061L6.642 15.3h3.136c1.65 0 3.233-.664 4.4-1.845A6.34 6.34 0 0 0 16 9V6.3a6.341 6.341 0 0 0-1.822-4.456A6.184 6.184 0 0 0 9.778 0Zm2.329 11.809-.89.9c-.946.938-3.417-.133-5.595-2.385C3.444 8.07 2.49 5.544 3.4 4.606l.889-.9a.929.929 0 0 1 1.264.013l1.298 1.35a.887.887 0 0 1 .22.828.888.888 0 0 1-.575.628.851.851 0 0 0-.492.402.87.87 0 0 0-.082.633c.222 1 1.476 2.25 2.41 2.496.21.05.431.022.622-.08a.897.897 0 0 0 .415-.478.883.883 0 0 1 .64-.572.86.86 0 0 1 .815.257l1.296 1.35a.952.952 0 0 1-.013 1.276ZM8.809 4.275c-.088 0-.177.005-.265.016a.293.293 0 0 1-.291-.154.303.303 0 0 1 .117-.407.294.294 0 0 1 .11-.035 2.948 2.948 0 0 1 2.426.86 3.023 3.023 0 0 1 .854 2.454.302.302 0 0 1-.211.255.293.293 0 0 1-.314-.1.3.3 0 0 1-.064-.22 2.42 2.42 0 0 0-.683-1.967 2.36 2.36 0 0 0-1.68-.702Zm1.778 2.401a.303.303 0 0 1-.096.196.296.296 0 0 1-.498-.196c0-.318-.124-.623-.347-.848a1.177 1.177 0 0 0-.837-.351.294.294 0 0 1-.298-.18.305.305 0 0 1 .176-.406.295.295 0 0 1 .122-.015c.471 0 .924.19 1.257.527.333.338.52.796.52 1.273Zm2.26.974a.304.304 0 0 1-.242.249.294.294 0 0 1-.311-.149.303.303 0 0 1-.025-.24 3.623 3.623 0 0 0-.946-3.376A3.533 3.533 0 0 0 8.809 3.08h-.276a.293.293 0 0 1-.215-.071.301.301 0 0 1 .17-.527 4.13 4.13 0 0 1 3.254 1.221 4.235 4.235 0 0 1 1.216 2.973c0 .328-.037.655-.111.974Z" fill="#105720"/>
</svg><svg fill="none" viewBox="0 0 16 16" id="whatsApp" xmlns="http://www.w3.org/2000/svg">
    <path d="M7.996 0a7.998 7.998 0 0 0-6.477 12.69l-1 2.972 3.078-.984a7.998 7.998 0 0 0 10.82-11.456A7.999 7.999 0 0 0 7.995 0Zm4.251 11.314-.851.852c-.896.896-3.272-.09-5.378-2.2-2.106-2.11-3.05-4.48-2.198-5.366l.852-.852a.894.894 0 0 1 1.21 0L7.138 5a.834.834 0 0 1-.314 1.388.814.814 0 0 0-.538.988c.224.94 1.434 2.106 2.332 2.33a.854.854 0 0 0 .978-.544.836.836 0 0 1 1.4-.314l1.253 1.256a.894.894 0 0 1-.002 1.21Z" fill="#105720"/>
</svg></svg>